<?xml version="1.0" encoding="utf-8"?>
<!-- Generator: Adobe Illustrator 19.0.0, SVG Export Plug-In . SVG Version: 6.00 Build 0)  -->
<svg version="1.1" xmlns="http://www.w3.org/2000/svg" xmlns:xlink="http://www.w3.org/1999/xlink" x="0px" y="0px"
	 viewBox="0 0 2002.4 2254" style="enable-background:new 0 0 2002.4 2254;" xml:space="preserve">
<style type="text/css">
	.st0{fill:#AEE1F5;}
	.st1{fill:#FFFFFF;}
	.st2{fill:none;stroke:#7F15E9;stroke-width:10;stroke-miterlimit:10;}
	.st3{fill:none;stroke:#7F16EC;stroke-width:10;stroke-miterlimit:10;}
	.st4{fill:none;stroke:#7F00E0;stroke-width:10;stroke-miterlimit:10;}
	.st5{fill:#7F15E9;}
</style>
<g id="cloth">
	<path class="st0" d="M1147.1,1448.1c-11.5,8.1-25.1,13.3-36.9,21.1c-14,9.3-30.4,14.5-46.7,18.3c-13.9,3.3-28.2,6.6-42.6,7.4
		c-19.1,6.7-42.1,2.9-61.1-1.1c-7.1-1.5-14.2-3-21.2-4.7c-19.1-2.8-38.1-7.4-56.7-12.2c-14.8-3.8-29.7-9.4-38.8-22.4
		c-0.5-0.8-0.7-1.7-0.7-2.7c-1.6-1-3.1-2-4.5-3.3c-1.3-1.2-1.7-2.7-1.5-4l-13.7-0.2c0,0,19.4,48,72,63.3s130.2,22.2,175.9,0
		s58.9-12.2,83.5-59.4L1147.1,1448.1z"/>
	<line class="st0" x1="138.1" y1="2056" x2="136.4" y2="2197.5"/>
	<path class="st0" d="M575.4,1747.3c0,0-216.1,123.3-301.4,126.7c-85.3,3.4-130.9,137.4-118.4,181.9c12.5,44.6,24.9,46.6,39.5,34.2
		S752.7,1895,952.8,2056c200.2,160.9,971.1,143.4,900.5-76.4l-41.4-95.5l-56.3-24.4l-166-58.8l-181-84.7l36,94.5l18,30.1l3,18.8
		H1393l-49.3-20.5l-87.1-15.8l-102.5,22.9l-66.5,38.2l-43.3,81.5l-21.7,30.3l-46.2,4.6l-45.7-61.3l-68.7-79.8l-64.3-31.2l-101.8,1.9
		l-132.2,29.2l-37.3-5.3l5.3-22.6C531.7,1831.7,572.8,1754.8,575.4,1747.3z"/>
	<path class="st0" d="M613.1,1730.7"/>
	<path class="st0" d="M945.9,802.6v16c0-6.5-0.9-13.5-2.3-20.4l1.6-0.9L945.9,802.6z"/>
	<path class="st0" d="M945.8,822.6c0.1-1.3,0.1-2.6,0.1-4v4L945.8,822.6z"/>
	<rect x="334.4" y="730" class="st1" width="104.7" height="55.9"/>
	<g id="Layer_2">
		<path class="st2" d="M1177.9,1580.9c7.3,19.9,14.6,42.1,12.6,63.6c-1.7,18-18.2,35.6-31,47.4c-28.7,26.2-73.5,39.7-111.1,45.4
			c-23,3.5-46.4,4.1-69.6,2c5.9-0.1-126.4-5-170-70.3c-18.1-29-3.6-58.1,4.5-86.9c-0.6,3.1-1.1,3,0,0c0.4,2.7-1.6,3.7,0,0
			c10.6,34.7,7.1,71.6,14.1,106.9c-7.7-56.2-15-110.6-18.6-168.7c-3.6-25.4-7.3-47.2-10.9-72.6c-3.6-10.9,0-25.4-10.9-25.4
			c-68.9-7.3-119.7,58.1-152.4,116.1c-3.6,7.3-7.3,18.1-10.9,25.4c-29,94.3-32.7,192.3-98,275.7c-7.3,10.9,3.6,18.1,7.3,21.8
			c14.5,7.3,29-3.6,43.5-3.6c83.4-14.5,163.3-54.4,243.1-21.8c65.3,29,105.2,87.1,137.9,148.8c14.5,29,50.8,18.1,76.2,7.3
			c29-83.4,98-156,188.7-166.9c18.1,0,39.9-3.6,58.1,0c50.8,14.5,101.6,18.1,148.8,36.3c14.5,3.6,47.2,0,32.7-21.8
			c-14.5-25.4-32.7-50.8-43.5-76.2c-21.8-61.7-25.4-123.4-43.5-185c-7.3-21.8-18.1-39.9-25.4-58.1
			c-32.7-54.4-83.4-105.2-148.8-105.2c-3.6,0-7.3,10.9-7.3,14.5c-10.9,87.1-27.6,232.9-29,257.6"/>
		<path class="st2" d="M613.1,1602.5"/>
		<path class="st2" d="M585.5,1716.1c0,0-276.1,139.2-355,143.3s-93.5,143.6-93.5,143.6"/>
		<path class="st2" d="M1408.6,1716.1c0,0,276.1,139.2,355,143.3s93.5,143.6,93.5,143.6"/>
		<path class="st2" d="M943.8,1583.1c0,0,53.8,60.3,118,0"/>
	</g>
</g>
<g id="head_1_">
	<polygon class="st0" points="1116.7,988.9 1116,990.9 1114.4,988.1 	"/>
	<path class="st0" d="M943.6,798.2c1.4,6.8,2.3,13.8,2.3,20.4c0,1.4,0,2.7-0.1,4c-1.2,20.2-12.6,34.4-48.4,22.9l-35.5-22l-48.5-12.9
		l-54.6,9.6l-52,29.5l-49.4,33.3l11.4-88.3l36-34.3l21.1-16.6h145.5c0,0,21.4,1.9,39,5.9l33.3-6.1l2.1,53.5l-0.7,0.4L943.6,798.2z"
		/>
	<path class="st0" d="M946.7,1208.8c0,0,86.2,1,93.5,0s5.2,8-10,19.4c-15.2,11.4-25.3,20.8-25.3,20.8s-4.5,12.1-13.5,0
		C982.4,1236.8,913.1,1201.1,946.7,1208.8z"/>
	<path class="st0" d="M1343.7,1162.7l-24.2,78.3l-32.4,56.4l-28.2,40.9l-2.3,3.4l-2.8,4l-50.9,54.5l-32.7,33.5l-22.9,20.6
		l-48.2,23.6h-11.3l-18.9,11.6l-44.1,5.6h-76.2l-80.9-23.9l-93.6-66.4l-59.6-60.1l-58.1-110.8l-17.3-60.3
		c1.8,3.9,61,127.9,109.4,161.3c0,0-7.8-33.2,10.3-47.8c0,0,23,68.6,63.8,97c40.9,28.4,146.9,38.8,172.5,38.8
		c25.6,0,132.9-12.5,154.4-37.4c21.4-24.9,64.2-63,65-98.4c0,0,22.3,31.9,11.2,50.6c0,0,37.2-44.3,69.8-91.8l-0.2,0.4l0.7-1l0.5-0.7
		c7-10.3,13.8-20.7,20-30.8l0.5-0.8l4.7-7.3l-0.3,0.7l5.7-9l-5.4,8.2l2.3-4.8c5.6-10,10.3-19.5,13.8-28.1L1343.7,1162.7z"/>
	<polygon class="st0" points="1256.6,1341.8 1258.9,1338.4 1257.9,1340.4 	"/>
	<path class="st0" d="M1295.5,1246.1c0.2-0.2,0.3-0.4,0.5-0.6l-0.7,1L1295.5,1246.1z"/>
	<path class="st0" d="M1317,1213.2c2.5-4.1,4.8-8.1,7-12.1l-2.3,4.8L1317,1213.2z"/>
	<path class="st0" d="M1339.3,1168.8c-0.5,1.4-1,2.8-1.6,4.2c-3.4,8.6-8.1,18.1-13.8,28.1l11.4-24.1L1339.3,1168.8z"/>
	<path class="st0" d="M1337.7,1173c-3.4,8.6-8.1,18.1-13.8,28.1l-2.3,4.8l-4.7,7.3l-0.5,0.8l-20,30.8l-0.5,0.7l-0.7,1l0.2-0.4
		l39.9-69.1L1337.7,1173z"/>
	<path class="st0" d="M1382.6,922.3c0,0,43.6,42.6,10.4,94.6c-33.2,51.9-14.8-5.2-14.8-5.2V970L1382.6,922.3z"/>
	<path class="st0" d="M592,927.2l-22.2,61.6l11.1,18.7l15.5,31.2c0,0,5.2-17.6,4.8-21.8s0-41.9,0-41.9L592,927.2z"/>
	<polygon class="st0" points="1114.4,988.1 1087.6,980.1 1088.6,973.7 1111.2,983 	"/>
	<path class="st0" d="M1342.1,555.8l20.6,177.4l10.5,111.4l9.5,77.7l20.6-51.9l15-57.1l17.8-112.7l4.7-78.1l-4.5-115l18,27.7l-21-70
		l-40.3-61.6l-19.9-33.2l48.6,40c0,0-60.9-91.3-129.5-116.2c0,0-22.1-72.7-38.1-94.2l-2.8,20.8c0,0-73.9-96.4-156.4-114.3l29.7,37.5
		c0,0-236.4,8-279.1,32.6c-42.7,24.6-99,62.3-99,62.3l-130.9,91.4l-30.5,59.6l-35.4,76.4l-4.8,38.5l-10.1,51.8l8.6,2.6l12.5-24
		c0,0-6.9,60.3-6.9,83.1c0,22.9-3.2,95.7,8.3,158.6c11.5,63,24.7,100.4,24.7,100.4l5.3,31.5l11.6-12.8l21.5-128.1l39.5-171.1
		l19.4-82.5l73.4-9.6c0,0,196-30.5,220.3-11.8l28.4,14.5c0,0-6.8-36,6.3-38.1c13.1-2.1,38.1-11.8,60.2-9
		c22.2,2.8,74.8-14.5,140.6,21.5l-76.9-35.3l-1.4-8.3l58.2,12.5l47.1,14.5l31.9,15.2l37.4,29.1L1342.1,555.8z"/>
	<path class="st0" d="M1044.3,1076.1l29.6,4.7l27.1,13.3l-46.6,13.7c0,0-17.7,2.1-19.2,0c-1.6-2.1-12.5-17.1-12.5-17.1
		L1044.3,1076.1z"/>
	<path class="st0" d="M1231.5,1150.1l-0.2-3C1231.5,1148.7,1231.5,1149.8,1231.5,1150.1z"/>
	<path class="st0" d="M1223.3,1129"/>
	<path class="st0" d="M1234.7,1143.5l-3.2,7.4c0,0,0,0,0-0.1c0.1-0.6,0.5-4.9-0.4-10.3c-0.1,0.5-0.2,0.7-0.2,0.7
		c0-0.4,0-0.7-0.1-1.1l0.5,7.5c-0.9-7.9-5.7-27.1-30.6-24h-0.1c-132.5,32.1-390.7-0.1-409.8-1.1c-19.4-1-19,28.4-19,28.4
		c-10.4-11.1-6.2-40-6.2-40l179.7-39c42.6,52.7,111.2,6.5,111.2,6.5s157.3,28,175.1,33.1c3.3,0.2,8,1,8.8,3.2
		C1241.6,1118.3,1234.7,1143.5,1234.7,1143.5z"/>
	<path class="st0" d="M874.7,1463.7c-3.2-0.9-6.4-1.9-9.6-3c2.9,1.5,6.1,2.8,9.3,3.8C874.4,1464.2,874.5,1463.9,874.7,1463.7z"/>
	<path class="st0" d="M1080.7,1447.7c0.3-0.1,0.5-0.3,0.8-0.4l-6.9-0.1c0.2,0.4,0.4,0.7,0.5,1.1
		C1076.9,1448.2,1078.8,1448,1080.7,1447.7z"/>
	<path class="st0" d="M668.9,785.9l-23.6,30.9l-14.5,85.4c0,0,73-43.5,80.3-51.4c7.3-7.9,11.1-60.8,11.1-60.8v-13.2L668.9,785.9z"/>
	<path class="st0" d="M1300.5,791.5l-28.1,59.6l-3.4-6.7l-28.9-19.3l-57.4-14.5l-25.6,2.9c0,0-53.5,24.9-68.6,37.7
		c-15.1,12.8-13.5,125.4-13.5,125.4l12.5,3.7l26.8,8l1.7,2.7l8.8,14.6l3,20l-8.9,20.4l-21.8,10.2l-4.1-3.8l-27.2,10.8l-58.2,27.6
		c0,0,8.3-224.4,11.4-264.9c0.2-3,0.7-5.9,1.5-8.9c0,0,0,0,0-0.1c3.7-47.1,53.5-76.8,53.5-76.8l-0.2,3.5c0,0,2.2,1.3,5.4,3.4
		C1287.2,699.2,1300.5,791.5,1300.5,791.5z"/>
	<g id="head">
		<path class="st3" d="M1340.7,546.3c0,0,16.6,112.2,34.6,324.1c18,211.9-54,367.1-54,367.1C1157.9,1552,927.9,1563,758.9,1389.9
			c-179.3-183.7-162.1-479.3-162.1-479.3l80.3-403.1c0,0,268.4-63.7,310.1-33.2c0,0,11.2-27.7,62.5-29.1c51.3-1.4,112.2,18,112.2,18
			s-9.7-5.5-40.2-24.9c0,0,133,19.4,175.9,63.7C1340.7,546.3,1340.7,546.3,1340.7,546.3z"/>
		<path class="st3" d="M822.6,1025.6c0,0-91.4,58.2-55.4,137.1"/>
		<path class="st3" d="M1185.6,1025.6c0,0,90,56.8,45.7,137.1"/>
		<path class="st3" d="M797.7,1150.2c0,0,230.1,83.6,400.3,0"/>
		<path class="st3" d="M897.4,851c0,0-72-91.4-192.5,0"/>
		<path class="st3" d="M1088.6,851c0,0,87.2-91.4,188.4,0"/>
		<path class="st3" d="M588.5,913.4c0,0-42.9-155.1-54-220.3c-11.1-65.1,13.9-141.3,13.9-141.3l-13.9,20.8
			c0-169,102.5-241,102.5-241l-24.9,11.1c33.2-61,225.8-160.7,225.8-160.7l-36.7-2.8c64.4-37.4,312.4-48.5,312.4-48.5l-24.9-24.9
			c70.6,4.2,164.8,112.2,164.8,112.2c1.4-9.7-20.8-49.9-20.8-49.9c56.8,33.2,65.1,115,65.1,115s97,41.6,131.6,131.6l-31.9-18
			c0,0,55.4,91.4,56.8,138.5l-18-27.7c0,0,11.1,152.4-1.4,198.1c-12.5,45.7-15,180.1-56.7,221.6"/>
		<line class="st3" x1="952.8" y1="785.9" x2="937.6" y2="1025.6"/>
		<path class="st3" d="M914.1,976.4c0,0-51.3-7.6-51.9,44.3c0,0-3.5,24.9,22.9,34.6s45.7,5.5,45.7,5.5s36.7,29.8,67.2,30.5
			c30.5,0.7,57.5-26.3,57.5-26.3s43.6-7.6,56.8-13.9c13.2-6.2,19.4-29.8,14.5-40.9c-4.8-11.1-9.7-41-51.3-34.3"/>
		<path class="st3" d="M1414,837.2c0,0,23.6,2,28.8,20.7c5.2,18.7-1,62-20.8,112s-8.1,87.4-8.1,87.4s24.7,76.4-52.2,45.5"/>
		<path class="st3" d="M568.1,837.2c0,0-44.7,1-41.6,39.4s32.2,111.2,32.2,127.8s-30.4,154.5,54.4,89.7"/>
		<path class="st3" d="M1382.6,941.1c0,0,46.8,41.6,0,59.2"/>
		<path class="st3" d="M586.8,960.8c0,0-36.4,28.1,5.2,56.1"/>
		<path class="st4" d="M1414.1,1495"/>
	</g>
</g>
<g id="leftbrrow">
	<path class="st5" d="M943.8,743.4c0,0-98.4-42.9-214-27c0,0-24.9-9.7-84.5,100.4c0,0,59.6-51.3,78.3-52c18.7-0.7,179.4,9,190.5,7
		C925.1,769.8,931.3,776,943.8,743.4z"/>
</g>
<g id="rightbrrow">
	<path class="st5" d="M1074,740c0,0-2.1,15.9,7.6,25.6c9.7,9.7,5.5,7.6,5.5,7.6s9.7,4.2,56.8-2.8c47.1-6.9,103.9-10.4,114.3-2.8
		c10.4,7.6,72.7,36.7,74.1,49.2c0,0-39.5-81-67.2-94.9S1191.1,701.9,1074,740z"/>
</g>
<g id="lefteye">
	<circle class="st5" cx="806.8" cy="850.9" r="24.4"/>
</g>
<g id="righteye">
	<circle class="st5" cx="1178.4" cy="850.9" r="24.4"/>
</g>
</svg>
